<?xml version="1.0" encoding="utf-8"?>
<svg version="1.0" xmlns="http://www.w3.org/2000/svg" width="500.000000pt" height="500.000000pt" viewBox="0 0 500.000000 500.000000" preserveAspectRatio="xMidYMid meet">
  <g transform="translate(0.000000,500.000000) scale(0.100000,-0.100000)" fill="#000000" stroke="none">
    <path d="M2450 3809 c-70 -28 -150 -131 -150 -194 0 -40 -64 -209 -102 -268 -22 -34 -33 -67 -39 -115 -15 -124 -22 -140 -98 -216 -39 -39 -71 -79 -71 -88 0 -9 -4 -19 -9 -22 -4 -3 -14 -27 -21 -53 -7 -27 -21 -66 -31 -88 -29 -62 -34 -125 -15 -181 19 -57 10 -179 -15 -195 -8 -5 -66 -9 -129 -9 -146 0 -196 -16 -265 -85 -27 -27 -54 -58 -60 -67 -9 -15 -14 -16 -74 -1 -53 14 -71 24 -105 61 -22 25 -63 56 -91 68 -47 22 -62 24 -230 24 -177 0 -181 0 -240 -29 -64 -30 -102 -67 -138 -135 -18 -34 -21 -55 -19 -126 3 -109 3 -291 0 -400 -2 -75 0 -91 24 -136 28 -53 76 -101 131 -131 27 -15 67 -19 258 -23 l227 -5 51 -48 c28 -27 77 -60 109 -75 51 -24 68 -27 172 -27 110 0 119 2 180 32 36 18 85 51 110 75 l44 43 556 1 c305 1 573 2 595 2 38 -1 705 0 790 0 22 0 132 0 245 -1 195 -1 208 0 258 22 111 50 180 165 167 284 -3 34 -8 195 -11 357 -4 251 -7 297 -21 312 -18 21 -98 23 -313 9 -169 -11 -203 -28 -303 -151 -13 -16 -25 -20 -40 -16 -12 4 -46 9 -74 13 l-53 6 0 73 0 74 -201 -2 c-188 -1 -202 1 -212 18 -10 17 -11 100 -4 264 1 40 -4 67 -20 100 -12 25 -25 59 -29 75 -19 78 -54 130 -130 195 -84 72 -89 80 -105 183 -12 76 -29 118 -61 154 -28 30 -108 210 -108 242 -1 66 -77 164 -152 196 -41 17 -140 19 -178 4z m159 -117 c37 -27 59 -63 65 -104 8 -52 92 -240 127 -285 30 -37 34 -49 43 -118 15 -118 14 -115 111 -210 95 -92 117 -124 130 -185 4 -19 16 -49 26 -66 22 -36 24 -80 7 -135 -9 -30 -8 -60 2 -132 7 -50 15 -127 17 -170 4 -73 6 -78 22 -63 40 36 86 45 237 47 l149 1 3 -86 3 -85 26 10 c36 14 131 13 168 -1 23 -9 44 -8 88 1 53 12 59 16 78 56 44 91 111 115 299 111 l125 -3 6 -255 c3 -140 10 -272 16 -293 6 -20 9 -45 8 -55 -2 -9 -6 -29 -9 -44 -8 -37 -51 -85 -98 -109 -35 -18 -56 -20 -161 -18 -67 2 -136 -1 -154 -5 -20 -5 -55 -2 -93 8 -54 14 -66 14 -120 0 -46 -12 -72 -13 -106 -6 -30 6 -58 6 -81 0 -29 -8 -108 -7 -335 2 -10 0 -46 0 -80 -1 -39 -1 -77 4 -100 14 -35 15 -41 15 -75 0 -43 -18 -53 -18 -463 -16 -168 1 -325 1 -350 1 -25 1 -112 1 -195 1 l-149 0 -48 -53 c-64 -73 -127 -99 -233 -98 -51 0 -94 6 -117 16 -47 20 -104 70 -123 107 l-15 28 -243 3 -244 3 -41 28 c-62 41 -85 93 -77 176 8 85 8 277 0 362 -6 56 -3 73 14 107 42 81 98 102 280 102 111 0 144 -4 177 -19 49 -22 81 -54 100 -98 13 -31 17 -33 64 -33 28 0 67 -7 87 -15 30 -13 47 -14 90 -5 48 10 55 15 69 48 18 44 48 78 89 100 25 14 61 17 207 17 l177 0 -5 22 c-3 12 2 45 11 72 17 51 17 163 0 268 -5 33 -2 52 12 80 11 21 23 54 27 74 10 57 41 107 110 179 36 37 68 80 71 96 4 16 12 45 18 64 6 19 11 56 12 81 0 33 8 57 28 87 33 47 107 241 107 280 0 40 40 102 80 124 41 22 91 18 129 -10z" style="fill: rgb(178, 21, 9);"/>
    <path d="M2530 3565 c0 -32 -97 -293 -120 -322 -13 -17 -16 -35 -12 -73 3 -39 1 -55 -13 -70 -9 -10 -14 -24 -10 -30 10 -16 -67 -138 -119 -190 -37 -35 -46 -51 -46 -78 0 -25 -4 -33 -14 -29 -16 6 -26 -20 -26 -70 0 -20 -7 -36 -17 -42 -14 -8 -15 -12 -4 -25 11 -13 12 -44 7 -148 -4 -73 -12 -140 -17 -150 -6 -12 -6 -25 1 -38 8 -14 8 -55 1 -138 -6 -64 -11 -127 -11 -138 0 -14 -8 -24 -23 -28 -13 -3 -36 -17 -51 -31 -15 -14 -29 -25 -32 -25 -2 0 -3 36 -2 81 3 77 2 82 -25 105 -33 28 -86 32 -122 8 -23 -15 -25 -15 -25 0 0 15 -12 16 -86 14 -80 -3 -88 -5 -106 -29 -18 -24 -19 -28 -4 -64 9 -20 16 -41 16 -45 0 -5 -44 -11 -97 -15 -104 -8 -128 -15 -154 -48 l-17 -20 -11 22 c-26 48 -63 59 -177 53 l-104 -5 0 66 c0 55 -3 68 -19 77 -11 5 -80 10 -154 10 -120 0 -136 -2 -152 -20 -13 -15 -16 -27 -10 -52 10 -41 10 -331 1 -378 -6 -28 -4 -39 11 -53 17 -15 51 -17 304 -19 l284 -3 1 -40 c0 -22 6 -50 12 -61 28 -52 141 -70 219 -35 45 21 69 51 79 98 l6 30 91 7 c49 3 119 6 154 6 35 0 73 5 84 10 14 8 27 7 48 -5 42 -21 109 -19 155 6 24 13 41 17 45 10 16 -25 73 -30 341 -30 304 0 311 1 359 53 l25 26 37 -36 c44 -43 96 -54 153 -30 34 14 40 14 59 1 16 -11 53 -15 154 -15 122 0 133 2 146 21 l15 20 33 -20 c58 -36 125 -25 174 26 25 27 26 27 40 9 43 -57 123 -72 184 -35 30 18 34 19 45 3 24 -32 158 -31 191 2 17 17 20 69 5 79 -6 4 -10 87 -10 216 l0 209 -83 0 c-69 0 -87 -3 -100 -18 -19 -20 -23 -77 -7 -87 6 -3 10 -29 10 -57 l0 -51 -22 21 c-61 56 -143 56 -205 -1 l-23 -20 -22 21 c-62 57 -156 55 -211 -6 -19 -21 -19 -21 -49 14 -21 24 -39 34 -59 34 -28 0 -28 0 -31 73 l-3 72 -78 -1 c-96 -2 -122 -19 -112 -74 20 -117 19 -125 -16 -94 -23 21 -90 29 -130 15 -18 -6 -34 -9 -37 -7 -2 3 -10 69 -18 148 -7 79 -20 211 -29 293 -19 185 -19 199 0 215 14 11 13 14 -3 26 -13 9 -22 31 -26 64 -5 40 -10 50 -24 48 -13 -2 -18 5 -20 29 -3 25 -16 43 -59 80 -60 52 -133 151 -133 181 0 11 -7 26 -16 33 -13 10 -15 26 -11 69 4 47 1 59 -18 80 -29 32 -139 288 -137 318 1 12 -3 22 -8 22 -6 0 -10 -11 -10 -25z m268 -789 c107 -56 148 -229 67 -282 -100 -66 -252 137 -190 256 8 15 20 30 27 33 25 10 69 7 96 -7z m-369 -22 c46 -58 18 -190 -53 -252 -74 -64 -136 -31 -136 72 0 68 37 140 94 184 38 29 70 28 95 -4z m-1369 -699 c0 -51 -24 -63 -40 -21 -9 24 -59 44 -80 31 -5 -3 -10 -37 -10 -76 0 -59 2 -69 18 -69 9 0 23 9 30 20 18 30 30 24 37 -20 12 -68 -14 -105 -43 -60 -7 11 -19 20 -27 20 -22 0 -22 -158 0 -166 27 -11 66 6 83 36 26 46 42 38 42 -20 l0 -50 -119 0 c-119 0 -144 7 -116 30 12 10 15 44 15 181 0 101 -4 170 -10 174 -5 3 -10 13 -10 21 0 11 22 14 115 14 l115 0 0 -45z m730 -149 c0 -119 4 -197 10 -201 24 -15 6 -25 -45 -25 -51 0 -69 10 -45 25 14 8 13 362 0 370 -20 12 1 25 41 25 l39 0 0 -194z m168 182 c17 -17 15 -55 -4 -66 -43 -24 -88 36 -49 65 23 16 37 17 53 1z m442 -74 c0 -85 0 -86 23 -79 91 29 102 16 102 -119 0 -56 4 -109 9 -118 7 -16 2 -18 -40 -18 l-49 0 3 101 4 101 -24 -4 c-22 -3 -23 -6 -23 -100 l0 -98 -40 0 -40 0 3 186 c2 129 0 190 -8 199 -18 22 -3 35 41 35 l39 0 0 -86z m484 80 l46 -7 0 -48 c0 -61 -20 -66 -47 -11 -20 41 -51 52 -77 27 -28 -28 -18 -47 59 -121 97 -93 114 -138 79 -205 -22 -44 -71 -61 -145 -53 l-59 7 0 58 c0 33 4 59 9 59 13 0 27 -22 34 -51 13 -53 89 -62 108 -12 15 41 0 71 -68 131 -36 31 -72 70 -80 86 -19 37 -10 86 24 120 27 27 42 30 117 20z m1278 -186 c2 -106 7 -201 12 -210 7 -16 2 -18 -48 -18 -52 0 -70 10 -46 25 14 8 13 362 0 370 -20 12 1 25 40 25 l39 0 3 -192z m-794 95 l3 -82 35 15 c44 19 71 5 78 -39 3 -17 7 -76 9 -129 l3 -98 -42 0 -41 0 4 93 c4 97 -3 122 -31 111 -15 -6 -17 -20 -15 -103 l2 -96 -44 -3 -44 -3 0 211 0 211 40 -3 40 -3 3 -82z m-2135 -65 c4 -10 7 -10 18 0 19 18 63 15 82 -5 11 -13 17 -45 19 -118 2 -55 7 -108 12 -117 7 -16 2 -18 -41 -18 l-48 0 3 111 4 111 -23 -4 c-24 -3 -24 -5 -24 -111 l1 -108 -46 3 c-35 2 -44 6 -40 18 11 35 11 202 0 215 -7 8 -9 19 -5 25 9 14 82 13 88 -2z m404 1 c17 -17 4 -41 -18 -34 -22 7 -23 2 -8 -40 26 -70 -17 -153 -80 -158 -55 -4 -48 -24 11 -31 62 -9 88 -28 88 -68 0 -63 -85 -104 -158 -76 -28 10 -38 20 -40 40 -2 19 2 28 17 33 27 8 41 -1 41 -26 0 -17 6 -20 36 -17 44 4 65 28 45 52 -10 12 -31 16 -77 16 -71 0 -76 6 -45 54 19 29 19 30 0 65 -36 68 -16 161 39 182 14 6 43 7 63 4 22 -4 40 -2 44 4 8 14 28 14 42 0z m333 -102 c0 -70 4 -117 11 -124 20 -20 -1 -33 -53 -33 -48 0 -50 1 -42 23 4 12 8 63 8 112 0 50 -4 100 -8 113 -8 21 -6 22 38 22 l46 0 0 -113z m244 92 c29 -23 34 -50 11 -69 -21 -17 -55 -3 -55 24 0 30 -9 37 -31 25 -34 -18 -22 -46 39 -86 62 -41 74 -68 48 -108 -8 -13 -31 -28 -51 -35 -64 -21 -136 20 -120 69 13 41 62 35 67 -7 4 -34 41 -38 46 -5 2 16 -8 29 -42 52 -74 51 -83 85 -37 132 36 36 86 39 125 8z m956 6 c51 -27 53 -99 2 -93 -23 3 -27 7 -26 36 2 25 -2 32 -16 32 -25 0 -44 -60 -36 -112 13 -83 47 -103 72 -43 20 49 49 48 41 -1 -16 -95 -113 -109 -158 -24 -24 44 -25 136 -3 169 15 20 65 50 87 51 4 0 21 -7 37 -15z m560 -21 c22 -22 25 -33 25 -98 0 -86 -20 -125 -73 -140 -64 -18 -112 46 -112 150 0 51 3 59 35 91 30 30 39 34 67 28 18 -4 44 -18 58 -31z m225 21 c41 -20 55 -51 55 -124 0 -133 -115 -188 -171 -81 -38 71 -14 186 44 210 31 12 35 12 72 -5z" style="fill: rgb(42, 45, 126);"/>
    <path d="M2750 2715 c0 -9 50 -105 55 -105 13 0 55 24 55 32 0 5 -9 4 -19 -2 -31 -16 -37 -13 -56 30 -17 37 -35 61 -35 45z" style="fill: rgb(42, 45, 126);"/>
    <path d="M2347 2688 c-32 -77 -32 -78 10 -77 30 2 32 3 11 6 -32 5 -33 8 -12 58 8 20 13 39 10 42 -3 3 -11 -10 -19 -29z" style="fill: rgb(42, 45, 126);"/>
    <path d="M1512 1898 c-7 -7 -12 -39 -12 -80 0 -54 3 -70 16 -75 23 -9 34 15 34 78 0 62 -17 98 -38 77z" style="fill: rgb(42, 45, 126);"/>
    <path d="M3646 1902 c-12 -19 -18 -94 -12 -137 7 -46 28 -67 48 -47 11 11 14 136 4 170 -7 22 -30 30 -40 14z" style="fill: rgb(42, 45, 126);"/>
    <path d="M3897 1904 c-10 -10 -8 -166 2 -183 15 -23 39 -5 47 35 10 52 -7 148 -26 152 -9 1 -19 0 -23 -4z" style="fill: rgb(42, 45, 126);"/>
  </g>
</svg>